<?xml version="1.0" encoding="UTF-8"?>
<svg version="1.1" xmlns="http://www.w3.org/2000/svg" width="100" height="100">
<path d="M0 0 C10.06866931 7.25087772 17.72756886 16.79280068 20.3125 29.25 C21.70668558 45.91292143 19.18676434 58.15716957 8.640625 71.33984375 C2.22382219 78.48333577 -8.09918475 84.61508614 -17.80297852 85.42700195 C-34.86566428 85.88895149 -46.79126814 83.44661518 -59.8125 71.75 C-70.07212814 61.14084545 -72.17133125 48.37416494 -71.96484375 34.2578125 C-71.50503107 21.94581333 -64.87448062 11.59167312 -56.171875 3.17578125 C-39.79726859 -9.51711334 -17.57628553 -10.86641977 0 0 Z M-58.9375 13.9375 C-66.28176943 24.70772751 -68.4345724 35.43714363 -66.6875 48.25 C-63.82067311 59.57838643 -56.71633625 69.2569476 -46.6875 75.25 C-36.33818154 81.25928168 -24.72030656 82.28282841 -13.18359375 79.36328125 C-0.95157961 74.66106381 7.44364601 66.50710655 13.1875 54.875 C17.0118989 45.06566516 17.02887852 33.51760591 13.25 23.6875 C7.46713598 11.94308797 -0.92938237 3.93575978 -13.1484375 -0.828125 C-30.47362548 -5.34108787 -47.53438223 -0.01250702 -58.9375 13.9375 Z " fill="#000000" transform="translate(75.6875,10.75)"/>
<path d="M0 0 C-0.42833495 4.83161824 -2.27524046 6.62952856 -5.875 9.75 C-6.865 10.61367188 -7.855 11.47734375 -8.875 12.3671875 C-13.53073786 16.3100155 -18.23740198 20.18695424 -23 24 C-23.84691406 24.73476563 -24.69382812 25.46953125 -25.56640625 26.2265625 C-29.36419838 28.99413494 -31.38818773 28.58562695 -36 28 C-38.5 26.5 -38.5 26.5 -40 24 C-40.87078652 18.51404494 -40.87078652 18.51404494 -40 16 C-35.97511107 12.24069006 -32.45165296 10.07007119 -27.24609375 8.10546875 C-26.6227565 7.86838699 -25.99941925 7.63130524 -25.35719299 7.38703918 C-24.05091413 6.89331243 -22.7424303 6.40538294 -21.43188477 5.9230957 C-19.43350558 5.18602673 -17.44424932 4.42753924 -15.45507812 3.66601562 C-4.83393726 -0.32301676 -4.83393726 -0.32301676 0 0 Z M-22.44140625 12.0390625 C-23.81844256 12.55895036 -25.19204076 13.08801411 -26.5625 13.625 C-27.26052734 13.87378906 -27.95855469 14.12257813 -28.67773438 14.37890625 C-30.96398456 15.21837699 -30.96398456 15.21837699 -34 17 C-35.08541611 19.59087497 -35.08541611 19.59087497 -35 22 C-32.84552656 23.0027398 -32.84552656 23.0027398 -30 23 C-27.44311098 21.51300947 -25.35563877 19.56144177 -23.1875 17.5625 C-22.59001953 17.03333984 -21.99253906 16.50417969 -21.37695312 15.95898438 C-19.90594991 14.65273352 -18.45132557 13.32807977 -17 12 C-19.17911747 10.62433624 -19.17911747 10.62433624 -22.44140625 12.0390625 Z " fill="#000000" transform="translate(82,30)"/>
<path d="M0 0 C3.37462715 0.54723683 5.08235 1.0549 8 3 C8 4.32 8 5.64 8 7 C4.625 6.75 4.625 6.75 1 6 C-0.5 4.0625 -0.5 4.0625 -1 2 C-0.67 1.34 -0.34 0.68 0 0 Z " fill="#000000" transform="translate(17,29)"/>
<path d="M0 0 C3.68754757 0.49831724 5.60490662 1.10067643 8 4 C7.67 4.99 7.34 5.98 7 7 C1.25 6.25 1.25 6.25 -1 4 C-0.625 1.875 -0.625 1.875 0 0 Z " fill="#000000" transform="translate(76,63)"/>
<path d="M0 0 C0.8971875 0.309375 0.8971875 0.309375 1.8125 0.625 C1.5 2.5 1.5 2.5 0.8125 4.625 C-2.1875 6.625 -2.1875 6.625 -4.875 6.25 C-5.638125 6.04375 -6.40125 5.8375 -7.1875 5.625 C-5.69046729 2.17030914 -4.27938051 -0.73360809 0 0 Z " fill="#000000" transform="translate(23.1875,63.375)"/>
<path d="M0 0 C0.99 0 1.98 0 3 0 C3.33 0.99 3.66 1.98 4 3 C2.0625 6.1875 2.0625 6.1875 0 9 C-1.32 8.34 -2.64 7.68 -4 7 C-2.92598892 4.08482708 -2.22189824 2.22189824 0 0 Z " fill="#000000" transform="translate(67,16)"/>
<path d="M0 0 C1.8125 0.1875 1.8125 0.1875 4 1 C5.75 3.5625 5.75 3.5625 7 6 C6.01 7.485 6.01 7.485 5 9 C2.09303901 7.93411431 1.15567038 7.29651501 -0.3125 4.5 C-1 2 -1 2 0 0 Z " fill="#000000" transform="translate(30,16)"/>
<path d="M0 0 C1.010625 0.0825 2.02125 0.165 3.0625 0.25 C3.7225 1.24 4.3825 2.23 5.0625 3.25 C4.7325 3.91 4.4025 4.57 4.0625 5.25 C1.4225 5.25 -1.2175 5.25 -3.9375 5.25 C-3.9375 0.33510638 -3.9375 0.33510638 0 0 Z " fill="#000000" transform="translate(83.9375,46.75)"/>
<path d="M0 0 C0.94875 0.04125 1.8975 0.0825 2.875 0.125 C3.535 1.445 4.195 2.765 4.875 4.125 C3.875 5.125 3.875 5.125 2.02734375 5.22265625 C-0.0234375 5.19010417 -2.07421875 5.15755208 -4.125 5.125 C-4.455 4.135 -4.785 3.145 -5.125 2.125 C-3.125 0.125 -3.125 0.125 0 0 Z " fill="#000000" transform="translate(16.125,46.875)"/>
<path d="M0 0 C0.99 0.33 1.98 0.66 3 1 C3 3.64 3 6.28 3 9 C1.68 9 0.36 9 -1 9 C-1.09765625 2.84765625 -1.09765625 2.84765625 -1 1 C-0.67 0.67 -0.34 0.34 0 0 Z " fill="#000000" transform="translate(49,11)"/>
</svg>
